HIERARCHY
ROOT joint_Root
{
	OFFSET 0.0 0.0 0.0
	CHANNELS 6 Xposition Yposition Zposition Zrotation Xrotation Yrotation 
	JOINT Hips
	{
		OFFSET -0.726466 93.3139 -2.00062
		CHANNELS 6 Xposition Yposition Zposition Zrotation Xrotation Yrotation 
		JOINT Spine
		{
			OFFSET 15.7357 0.0 0.0
			CHANNELS 6 Xposition Yposition Zposition Zrotation Xrotation Yrotation 
			JOINT Chest
			{
				OFFSET 8.98455 -0.406207 0.0
				CHANNELS 6 Xposition Yposition Zposition Zrotation Xrotation Yrotation 
				JOINT Neck
				{
					OFFSET 16.3773 0.0 0.0
					CHANNELS 6 Xposition Yposition Zposition Zrotation Xrotation Yrotation 
					JOINT Head
					{
						OFFSET 6.45672 0.0 0.0
						CHANNELS 6 Xposition Yposition Zposition Zrotation Xrotation Yrotation 
						End Site
						{
							OFFSET 0.0 0.0 0.0
						}
					}
				}
				JOINT Shoulder_L
				{
					OFFSET 12.9942 -0.242716 4.98039
					CHANNELS 6 Xposition Yposition Zposition Zrotation Xrotation Yrotation 
					JOINT UpperArm_L
					{
						OFFSET 5.34809 0.0 0.0
						CHANNELS 6 Xposition Yposition Zposition Zrotation Xrotation Yrotation 
						JOINT LowerArm_L
						{
							OFFSET 24.3286 1.87007e-05 0.0
							CHANNELS 6 Xposition Yposition Zposition Zrotation Xrotation Yrotation 
							JOINT Hand_L
							{
								OFFSET 22.2916 0.0 0.0
								CHANNELS 6 Xposition Yposition Zposition Zrotation Xrotation Yrotation 
								End Site
								{
									OFFSET 0.0 0.0 0.0
								}
							}
						}
					}
				}
				JOINT Shoulder_R
				{
					OFFSET 12.9945 -0.242716 -4.98039
					CHANNELS 6 Xposition Yposition Zposition Zrotation Xrotation Yrotation 
					JOINT UpperArm_R
					{
						OFFSET -5.34813 0.0 0.0
						CHANNELS 6 Xposition Yposition Zposition Zrotation Xrotation Yrotation 
						JOINT LowerArm_R
						{
							OFFSET -24.3289 0.000322201 0.0
							CHANNELS 6 Xposition Yposition Zposition Zrotation Xrotation Yrotation 
							JOINT Hand_R
							{
								OFFSET -22.2915 -0.000108084 0.0
								CHANNELS 6 Xposition Yposition Zposition Zrotation Xrotation Yrotation 
								End Site
								{
									OFFSET 0.0 0.0 0.0
								}
							}
						}
					}
				}
			}
		}
		JOINT UpperLeg_L
		{
			OFFSET -2.19248 -6.46944 0.0
			CHANNELS 6 Xposition Yposition Zposition Zrotation Xrotation Yrotation 
			JOINT LowerLeg_L
			{
				OFFSET 39.0811 0.0 -1.23785e-05
				CHANNELS 6 Xposition Yposition Zposition Zrotation Xrotation Yrotation 
				JOINT Foot_L
				{
					OFFSET 40.9854 0.0 -1.26872e-05
					CHANNELS 6 Xposition Yposition Zposition Zrotation Xrotation Yrotation 
					JOINT Toes_L
					{
						OFFSET 11.7543 0.0 0.0
						CHANNELS 6 Xposition Yposition Zposition Zrotation Xrotation Yrotation 
						End Site
						{
							OFFSET 0.0 0.0 0.0
						}
					}
				}
			}
		}
		JOINT UpperLeg_R
		{
			OFFSET -2.19251 6.46944 0.0
			CHANNELS 6 Xposition Yposition Zposition Zrotation Xrotation Yrotation 
			JOINT LowerLeg_R
			{
				OFFSET -39.0811 -0.00228153 -0.0401928
				CHANNELS 6 Xposition Yposition Zposition Zrotation Xrotation Yrotation 
				JOINT Foot_R
				{
					OFFSET -40.9854 0.0 0.0
					CHANNELS 6 Xposition Yposition Zposition Zrotation Xrotation Yrotation 
					JOINT Toes_R
					{
						OFFSET -11.7543 0.0 0.0
						CHANNELS 6 Xposition Yposition Zposition Zrotation Xrotation Yrotation 
						End Site
						{
							OFFSET 0.0 0.0 0.0
						}
					}
				}
			}
		}
	}
}
MOTION
Frames:	6
Frame Time:	0.0333333
0.000000 0.000000 0.000000 0.000000 0.000000 -0.000000 -0.433688 92.954300 -1.006250 89.083100 -2.616250 1.967780 15.735700 0.000005 -0.000001 94.075100 86.641200 -94.132300 8.984550 -0.406207 -0.000000 -1.065270 0.481679 -0.110037 16.377300 -0.000001 -0.000001 2.490840 -2.358060 3.310520 6.456720 -0.000001 -0.000000 7.578310 -1.272560 -3.579190 12.994200 -0.242716 4.980390 -90.550800 1.762820 -72.645100 5.348090 -0.000007 -0.000001 -68.036000 36.422800 -13.060800 24.328600 0.000019 0.000005 4.734080 11.261400 -22.979500 22.291600 -0.000001 0.000005 1.759600 5.490970 -6.175660 12.994500 -0.242716 -4.980390 87.592600 8.106400 -73.398200 -5.348130 -0.000001 -0.000004 -63.719200 39.780300 -13.205900 -24.328900 0.000322 -0.000009 4.742500 12.698000 -20.681200 -22.291500 -0.000108 -0.000004 4.980890 5.344390 -1.207870 -2.192480 -6.469440 -0.000000 -176.784000 -8.484440 -2.456290 39.081100 -0.000007 -0.000012 -0.057891 0.186701 17.227200 40.985400 -0.000006 -0.000013 -0.174229 4.293620 -62.948400 11.754300 -0.000000 0.000003 -0.000003 -0.000040 -16.579100 -2.192510 6.469440 -0.000001 178.956000 11.260500 179.576000 -39.081100 -0.002282 -0.040193 -0.055884 0.228057 14.555500 -40.985400 0.000008 0.000006 0.897231 7.405150 -62.397300 -11.754300 -0.000006 -0.000006 -0.005709 -0.068165 -19.347100
0.000000 0.000000 0.000000 0.000000 0.000000 -0.000000 -0.445421 92.961100 -1.017980 89.068800 -2.545930 2.027320 15.735700 0.000005 -0.000001 94.123200 86.646000 -94.184800 8.984550 -0.406207 -0.000000 -1.075040 0.486973 -0.118533 16.377300 -0.000001 -0.000001 2.492930 -2.407860 3.336390 6.456720 -0.000001 -0.000000 7.699210 -1.361840 -3.526770 12.994200 -0.242716 4.980390 -90.583200 1.869020 -72.668600 5.348090 -0.000007 -0.000001 -66.674700 36.051000 -14.184800 24.328600 0.000019 0.000005 5.484670 11.767400 -25.211200 22.291600 -0.000001 0.000005 -0.237025 5.486530 -5.997420 12.994500 -0.242716 -4.980390 87.600000 8.065300 -73.367800 -5.348130 -0.000001 -0.000004 -62.745500 39.354600 -13.957600 -24.328900 0.000322 -0.000009 5.435950 13.124500 -22.741300 -22.291500 -0.000108 -0.000004 2.251090 5.327880 -0.718723 -2.192480 -6.469440 -0.000000 -176.765000 -8.422550 -2.395070 39.081100 -0.000007 -0.000012 -0.056953 0.184090 17.190700 40.985400 -0.000006 -0.000013 -0.176396 4.288960 -62.915900 11.754300 -0.000000 0.000003 -0.000002 -0.000036 -16.578900 -2.192510 6.469440 -0.000001 178.972000 11.218800 179.685000 -39.081100 -0.002282 -0.040193 -0.054471 0.224153 14.459900 -40.985400 0.000008 0.000006 0.892510 7.360520 -62.351300 -11.754300 -0.000006 -0.000006 -0.005372 -0.065024 -19.219000
0.000000 0.000000 0.000000 0.000000 0.000000 -0.000000 -0.460651 92.939500 -1.048440 89.074000 -2.485460 2.154150 15.735700 0.000005 -0.000001 93.841000 86.627500 -93.911700 8.984550 -0.406207 -0.000000 -1.036000 0.457158 -0.137315 16.377300 -0.000001 -0.000001 2.551770 -2.449400 3.390240 6.456720 -0.000001 -0.000000 7.808040 -1.419130 -3.549820 12.994200 -0.242716 4.980390 -90.636500 2.036700 -72.642500 5.348090 -0.000007 -0.000001 -64.403000 34.566700 -16.195200 24.328600 0.000019 0.000005 6.633010 12.283200 -28.660600 22.291600 -0.000001 0.000005 -2.716510 5.482300 -5.840440 12.994500 -0.242716 -4.980390 87.581500 8.102650 -73.318500 -5.348130 -0.000001 -0.000004 -60.829100 37.919200 -15.418100 -24.328900 0.000322 -0.000009 6.501150 13.275100 -26.396200 -22.291500 -0.000108 -0.000004 -1.304030 5.308760 -0.171109 -2.192480 -6.469440 -0.000000 -176.751000 -8.343070 -2.409000 39.081100 -0.000007 -0.000012 -0.057534 0.183471 17.410700 40.985400 -0.000006 -0.000013 -0.180513 4.263430 -62.996900 11.754300 -0.000000 0.000003 -0.000002 -0.000034 -16.578800 -2.192510 6.469440 -0.000001 178.962000 11.234800 179.671000 -39.081100 -0.002282 -0.040193 -0.056594 0.228083 14.720800 -40.985400 0.000008 0.000006 0.909356 7.261610 -62.471300 -11.754300 -0.000006 -0.000006 -0.005827 -0.069257 -19.391600
0.000000 0.000000 0.000000 0.000000 0.000000 -0.000000 -0.463651 92.944200 -1.123380 89.087100 -2.412260 2.292420 15.735700 0.000005 -0.000001 93.715000 86.628000 -93.794200 8.984550 -0.406207 -0.000000 -1.035980 0.442945 -0.154368 16.377300 -0.000001 -0.000001 2.770460 -2.485170 3.443180 6.456720 -0.000001 -0.000000 7.982420 -1.468110 -3.594310 12.994200 -0.242716 4.980390 -90.636900 2.040540 -72.661600 5.348090 -0.000007 -0.000001 -61.748800 31.816500 -18.903100 24.328600 0.000019 0.000005 7.449950 11.593300 -33.052700 22.291600 -0.000001 0.000005 -2.816740 5.487330 -6.029770 12.994500 -0.242716 -4.980390 87.551900 8.054820 -73.032200 -5.348130 -0.000001 -0.000004 -58.081900 35.599700 -17.858400 -24.328900 0.000322 -0.000009 7.533460 12.501400 -31.428300 -22.291500 -0.000108 -0.000004 -2.725580 5.300780 0.050877 -2.192480 -6.469440 -0.000000 -176.752000 -8.284290 -2.326060 39.081100 -0.000007 -0.000012 -0.056954 0.181701 17.403600 40.985400 -0.000006 -0.000013 -0.179213 4.266810 -62.937700 11.754300 -0.000000 0.000003 -0.000001 -0.000022 -16.578400 -2.192510 6.469440 -0.000001 178.934000 11.249000 179.752000 -39.081100 -0.002282 -0.040193 -0.056550 0.227535 14.744400 -40.985400 0.000008 0.000006 0.913376 7.239720 -62.436700 -11.754300 -0.000006 -0.000006 -0.005839 -0.069366 -19.396100
0.000000 0.000000 0.000000 0.000000 0.000000 -0.000000 -0.472264 92.943200 -1.223090 89.068000 -2.453490 2.404060 15.735700 0.000005 -0.000001 93.420400 86.671300 -93.490200 8.984550 -0.406207 -0.000000 -1.120280 0.402524 -0.135747 16.377300 -0.000001 -0.000001 3.081090 -2.483580 3.475010 6.456720 -0.000001 -0.000000 8.379620 -1.405800 -3.642630 12.994200 -0.242716 4.980390 -90.602900 1.929400 -72.644000 5.348090 -0.000007 -0.000001 -58.999500 27.808900 -22.108400 24.328600 0.000019 0.000005 7.896870 10.115600 -38.300900 22.291600 -0.000001 0.000005 -1.632510 5.493330 -6.264070 12.994500 -0.242716 -4.980390 87.577400 7.827990 -72.743400 -5.348130 -0.000001 -0.000004 -55.143800 32.015100 -21.101200 -24.328900 0.000322 -0.000009 8.412080 11.172500 -37.355600 -22.291500 -0.000108 -0.000004 -1.613050 5.309990 -0.209459 -2.192480 -6.469440 -0.000000 -176.707000 -8.269540 -2.318330 39.081100 -0.000007 -0.000012 -0.058039 0.184233 17.485900 40.985400 -0.000006 -0.000013 -0.183863 4.292640 -62.913500 11.754300 -0.000000 0.000003 -0.000002 -0.000035 -16.578900 -2.192510 6.469440 -0.000001 178.953000 11.279800 179.754000 -39.081100 -0.002282 -0.040193 -0.057003 0.227983 14.823100 -40.985400 0.000008 0.000006 0.937009 7.258810 -62.406800 -11.754300 -0.000006 -0.000006 -0.005273 -0.064082 -19.180600
0.000000 0.000000 0.000000 0.000000 0.000000 -0.000000 -0.465556 92.947600 -1.324700 89.051200 -2.573890 2.576970 15.735700 0.000005 -0.000001 93.199300 86.694200 -93.255000 8.984550 -0.406207 -0.000000 -1.164490 0.373255 -0.107522 16.377300 -0.000001 -0.000001 3.463090 -2.425300 3.498630 6.456720 -0.000001 -0.000000 8.685490 -1.377080 -3.688700 12.994200 -0.242716 4.980390 -90.564100 1.810120 -72.689400 5.348090 -0.000007 -0.000001 -56.488200 22.475200 -25.612000 24.328600 0.000019 0.000005 9.277740 9.418090 -44.949200 22.291600 -0.000001 0.000005 -0.143795 5.502270 -6.622000 12.994500 -0.242716 -4.980390 87.627800 7.564630 -72.532300 -5.348130 -0.000001 -0.000004 -52.382200 26.961100 -24.906000 -24.328900 0.000322 -0.000009 10.002800 10.295700 -44.622900 -22.291500 -0.000108 -0.000004 0.124843 5.293020 0.267928 -2.192480 -6.469440 -0.000000 -176.657000 -8.485080 -2.212200 39.081100 -0.000007 -0.000012 -0.058579 0.185603 17.516300 40.985400 -0.000006 -0.000013 -0.179649 4.313640 -62.864400 11.754300 -0.000000 0.000003 -0.000002 -0.000033 -16.578800 -2.192510 6.469440 -0.000001 178.956000 11.191700 179.829000 -39.081100 -0.002282 -0.040193 -0.056290 0.224785 14.854800 -40.985400 0.000008 0.000006 0.952345 7.293770 -62.341000 -11.754300 -0.000006 -0.000006 -0.005755 -0.068598 -19.364700
